<svg id="udg_logo" xmlns="http://www.w3.org/2000/svg" viewBox="0 0 113.082 70.564">
  <defs>
    <style>
      .cls-1 {
        fill: #000;
      }
    </style>
  </defs>
  <g id="Group_7" data-name="Group 7" transform="translate(3.385 30.842)">
    <path id="Path_49" data-name="Path 49" class="cls-1" d="M23.2,143.114a3.129,3.129,0,0,1-.176.989,2.766,2.766,0,0,1-.55.9,2.466,2.466,0,0,1-1.033.659,4.1,4.1,0,0,1-1.539.264H18.126v3.385H15.4V140.3h4.506a4.1,4.1,0,0,1,1.539.264,2.573,2.573,0,0,1,1.033.681,2.788,2.788,0,0,1,.725,1.869Zm-2.77.022a.959.959,0,0,0-.374-.879,2.828,2.828,0,0,0-1.363-.242h-.572v2.176h.594a4.167,4.167,0,0,0,1.033-.088.894.894,0,0,0,.528-.308A1.127,1.127,0,0,0,20.434,143.136Z" transform="translate(-15.4 -140.3)"/>
    <path id="Path_50" data-name="Path 50" class="cls-1" d="M60.244,157.075c-.352.132-.659.242-.945.33a3.632,3.632,0,0,1-1.055.132,1.255,1.255,0,0,1-.813-.2,1.128,1.128,0,0,1-.33-.506,3.525,3.525,0,0,1-.835.506,3.082,3.082,0,0,1-1.209.2,2.483,2.483,0,0,1-1.165-.242,1.32,1.32,0,0,1-.616-.637,1.976,1.976,0,0,1-.176-.791,1.629,1.629,0,0,1,.308-1.011,2.323,2.323,0,0,1,.835-.659,9.273,9.273,0,0,1,1.385-.528c.33-.11.572-.176.747-.242a1.749,1.749,0,0,0,.374-.132,1.346,1.346,0,0,0,.264-.11,1.211,1.211,0,0,0-.2-.747,1.023,1.023,0,0,0-.835-.264,3.173,3.173,0,0,0-1.429.33,4.593,4.593,0,0,0-1.209.879v-1.8a4.872,4.872,0,0,1,.945-.506,4.151,4.151,0,0,1,1.055-.286,6.424,6.424,0,0,1,1.121-.088,3.459,3.459,0,0,1,2.154.55,1.829,1.829,0,0,1,.725,1.539v2.55a1.775,1.775,0,0,0,.066.55.257.257,0,0,0,.242.176,1.33,1.33,0,0,0,.594-.2Zm-3.275-1.253v-1.561a5.01,5.01,0,0,0-1.209.615.886.886,0,0,0-.374.725.631.631,0,0,0,.2.506.7.7,0,0,0,.44.176,1,1,0,0,0,.484-.132C56.661,156.064,56.815,155.932,56.969,155.822Z" transform="translate(-44.813 -148.414)"/>
    <path id="Path_51" data-name="Path 51" class="cls-1" d="M92.025,150.165a6.051,6.051,0,0,1-1.011.33,4.844,4.844,0,0,1-1.231.154,2.215,2.215,0,0,1-2.528-2.484v-2.638H86.2v-.418l3.143-3.209h.264v1.978H91.85v1.627H89.607v2.132a4.114,4.114,0,0,0,.044.594.505.505,0,0,0,.264.374,1.011,1.011,0,0,0,.638.154,3.543,3.543,0,0,0,1.473-.462Z" transform="translate(-70.636 -141.548)"/>
    <path id="Path_52" data-name="Path 52" class="cls-1" d="M123.147,150.984l-.857,2.352a1.626,1.626,0,0,0-1.077-.506,1.232,1.232,0,0,0-.857.33,3.544,3.544,0,0,0-.7,1.231v2.858H117.3v-6.617h2.352v1.6a3.656,3.656,0,0,1,.791-1.165,1.816,1.816,0,0,1,1.319-.572,2.249,2.249,0,0,1,.7.11C122.62,150.72,122.862,150.83,123.147,150.984Z" transform="translate(-94.9 -148.258)"/>
    <path id="Path_53" data-name="Path 53" class="cls-1" d="M150.984,153.929a3.538,3.538,0,0,1-.44,1.759,3.276,3.276,0,0,1-1.275,1.231,4.376,4.376,0,0,1-2.088.44,4.652,4.652,0,0,1-2.088-.44,3,3,0,0,1-1.275-1.231,3.528,3.528,0,0,1-.418-1.759,3.853,3.853,0,0,1,.242-1.363,2.751,2.751,0,0,1,.725-1.077,3.591,3.591,0,0,1,1.187-.725,4.631,4.631,0,0,1,1.649-.264,4.717,4.717,0,0,1,1.649.264,3.192,3.192,0,0,1,1.187.725,2.956,2.956,0,0,1,.7,1.077A3.491,3.491,0,0,1,150.984,153.929Zm-2.462,0a1.867,1.867,0,0,0-.352-1.231,1.333,1.333,0,0,0-1.978,0,1.867,1.867,0,0,0-.352,1.231,1.908,1.908,0,0,0,.352,1.231,1.163,1.163,0,0,0,.989.462,1.136,1.136,0,0,0,.989-.462A2.046,2.046,0,0,0,148.522,153.929Z" transform="translate(-115.262 -148.258)"/>
    <path id="Path_54" data-name="Path 54" class="cls-1" d="M190.5,157.327h-2.352v-3.561a2.418,2.418,0,0,0-.176-.945.77.77,0,0,0-.791-.418,1.221,1.221,0,0,0-.506.11,1.018,1.018,0,0,0-.4.286,1.913,1.913,0,0,0-.286.33c-.088.11-.154.22-.242.33v3.891H183.4v-6.617h2.352v.945a3.55,3.55,0,0,1,1.1-.835,3.234,3.234,0,0,1,1.231-.242c1.583,0,2.374.945,2.374,2.858v3.869Z" transform="translate(-146.469 -148.336)"/>
    <path id="Path_55" data-name="Path 55" class="cls-1" d="M227.944,157.075c-.352.132-.659.242-.945.33a3.632,3.632,0,0,1-1.055.132,1.256,1.256,0,0,1-.813-.2,1.128,1.128,0,0,1-.33-.506,3.526,3.526,0,0,1-.835.506,3.082,3.082,0,0,1-1.209.2,2.483,2.483,0,0,1-1.165-.242,1.321,1.321,0,0,1-.616-.637,1.976,1.976,0,0,1-.176-.791,1.629,1.629,0,0,1,.308-1.011,2.323,2.323,0,0,1,.835-.659,9.276,9.276,0,0,1,1.385-.528c.33-.11.572-.176.747-.242a1.749,1.749,0,0,0,.374-.132,1.345,1.345,0,0,0,.264-.11,1.211,1.211,0,0,0-.2-.747,1.023,1.023,0,0,0-.835-.264,3.173,3.173,0,0,0-1.429.33,4.594,4.594,0,0,0-1.209.879v-1.8a4.87,4.87,0,0,1,.945-.506,4.151,4.151,0,0,1,1.055-.286,6.425,6.425,0,0,1,1.121-.088,3.459,3.459,0,0,1,2.154.55,1.829,1.829,0,0,1,.725,1.539v2.55a1.776,1.776,0,0,0,.066.55.257.257,0,0,0,.242.176,1.33,1.33,0,0,0,.593-.2Zm-3.253-1.253v-1.561a5.01,5.01,0,0,0-1.209.615.886.886,0,0,0-.374.725.631.631,0,0,0,.2.506.7.7,0,0,0,.44.176,1,1,0,0,0,.484-.132C224.383,156.064,224.515,155.932,224.691,155.822Z" transform="translate(-175.648 -148.414)"/>
    <path id="Path_56" data-name="Path 56" class="cls-1" d="M259.725,150.165a6.047,6.047,0,0,1-1.011.33,4.844,4.844,0,0,1-1.231.154,2.215,2.215,0,0,1-2.528-2.484v-2.638H253.9v-.418l3.143-3.209h.264v1.978h2.242v1.627h-2.242v2.132a4.107,4.107,0,0,0,.044.594.505.505,0,0,0,.264.374,1.236,1.236,0,0,0,.638.154,3.543,3.543,0,0,0,1.473-.462v1.869Z" transform="translate(-201.472 -141.548)"/>
    <path id="Path_57" data-name="Path 57" class="cls-1" d="M23.2,215.836a3.129,3.129,0,0,1-.176.989,2.765,2.765,0,0,1-.55.9,2.466,2.466,0,0,1-1.033.659,4.1,4.1,0,0,1-1.539.264H18.126v3.363H15.4V213h4.506a4.1,4.1,0,0,1,1.539.264,2.572,2.572,0,0,1,1.033.681,2.435,2.435,0,0,1,.55.9A2.472,2.472,0,0,1,23.2,215.836Zm-2.77,0a.959.959,0,0,0-.374-.879,2.767,2.767,0,0,0-1.363-.242h-.572v2.176h.594a4.163,4.163,0,0,0,1.033-.088.894.894,0,0,0,.528-.308A1.127,1.127,0,0,0,20.434,215.836Z" transform="translate(-15.4 -197.019)"/>
    <path id="Path_58" data-name="Path 58" class="cls-1" d="M60.684,226.729a3.537,3.537,0,0,1-.44,1.759,3.275,3.275,0,0,1-1.275,1.231,4.376,4.376,0,0,1-2.088.44,4.653,4.653,0,0,1-2.088-.44,3,3,0,0,1-1.275-1.231,3.527,3.527,0,0,1-.418-1.759,3.854,3.854,0,0,1,.242-1.363,2.751,2.751,0,0,1,.725-1.077,3.591,3.591,0,0,1,1.187-.725A4.632,4.632,0,0,1,56.9,223.3a4.718,4.718,0,0,1,1.649.264,3.191,3.191,0,0,1,1.187.725,2.956,2.956,0,0,1,.7,1.077A3.854,3.854,0,0,1,60.684,226.729Zm-2.462,0a1.868,1.868,0,0,0-.352-1.231,1.121,1.121,0,0,0-.989-.44,1.206,1.206,0,0,0-.989.44,2.047,2.047,0,0,0-.352,1.231,1.908,1.908,0,0,0,.352,1.231,1.162,1.162,0,0,0,.989.462,1.136,1.136,0,0,0,.989-.462A2.046,2.046,0,0,0,58.222,226.729Z" transform="translate(-44.813 -205.054)"/>
    <path id="Path_59" data-name="Path 59" class="cls-1" d="M95.952,222.013H93.6V213h2.352Z" transform="translate(-76.41 -197.019)"/>
    <path id="Path_60" data-name="Path 60" class="cls-1" d="M114.552,221.545H112.2v-6.617h2.352Zm-.2-8.156a.962.962,0,0,1-.286.7.929.929,0,0,1-.7.286,1.021,1.021,0,0,1-.506-.132.9.9,0,0,1-.352-.352,1.019,1.019,0,0,1,.154-1.209.929.929,0,0,1,.7-.286.976.976,0,0,1,.989.989Z" transform="translate(-90.921 -196.551)"/>
    <path id="Path_61" data-name="Path 61" class="cls-1" d="M133.325,222.965a6.047,6.047,0,0,1-1.011.33,4.841,4.841,0,0,1-1.231.154,2.215,2.215,0,0,1-2.528-2.484v-2.638H127.5v-.418l3.144-3.209h.264v1.978h2.242v1.627h-2.242v2.132a4.115,4.115,0,0,0,.044.594.505.505,0,0,0,.264.374,1.01,1.01,0,0,0,.637.154,3.543,3.543,0,0,0,1.473-.462Z" transform="translate(-102.858 -198.345)"/>
    <path id="Path_62" data-name="Path 62" class="cls-1" d="M164.478,217.315h-4.66a1.664,1.664,0,0,0,.659.989,1.972,1.972,0,0,0,1.209.374,6.283,6.283,0,0,0,2.616-.659v1.451a7.889,7.889,0,0,1-1.253.484,6.3,6.3,0,0,1-1.869.22,4.375,4.375,0,0,1-2.088-.462,3,3,0,0,1-1.275-1.231,3.672,3.672,0,0,1-.418-1.781,3.444,3.444,0,0,1,.418-1.737,2.955,2.955,0,0,1,1.275-1.209,4.652,4.652,0,0,1,2.088-.44,3.589,3.589,0,0,1,1.561.352,2.8,2.8,0,0,1,1.231,1.143,4.016,4.016,0,0,1,.484,2.044v.462Zm-2.132-4.748h-1.253l-2.4-2.066h2.528Zm-.066,3.583a1.584,1.584,0,0,0-.308-1.011,1.076,1.076,0,0,0-.9-.374,1.212,1.212,0,0,0-.945.4,1.419,1.419,0,0,0-.352,1.011h2.506Z" transform="translate(-126.185 -195.068)"/>
    <path id="Path_63" data-name="Path 63" class="cls-1" d="M199.557,229.741c-.2.066-.4.132-.616.2a5.975,5.975,0,0,1-.725.154,5.5,5.5,0,0,1-.879.066,4.25,4.25,0,0,1-1.846-.374,3.109,3.109,0,0,1-1.165-.923,3.717,3.717,0,0,1-.572-1.143,3.771,3.771,0,0,1-.154-1.011,3.651,3.651,0,0,1,.154-1.011,3.329,3.329,0,0,1,.55-1.121,3.025,3.025,0,0,1,1.143-.9,4.251,4.251,0,0,1,1.847-.374,5.424,5.424,0,0,1,2.132.4v1.847a6.569,6.569,0,0,0-1.781-.374,1.749,1.749,0,0,0-1.1.374,1.351,1.351,0,0,0-.484,1.165,1.591,1.591,0,0,0,.242.879,1.421,1.421,0,0,0,.615.528,1.776,1.776,0,0,0,.747.176,3.594,3.594,0,0,0,.791-.11c.308-.066.659-.176,1.1-.308Z" transform="translate(-154.427 -205.054)"/>
    <path id="Path_64" data-name="Path 64" class="cls-1" d="M232.8,230.049h-2.352v-3.583a2.417,2.417,0,0,0-.176-.945.77.77,0,0,0-.791-.418,1.221,1.221,0,0,0-.506.11,1.018,1.018,0,0,0-.4.286,1.914,1.914,0,0,0-.286.33c-.088.11-.154.22-.242.33v3.891H225.7v-6.617h2.352v.945a3.551,3.551,0,0,1,1.1-.835,3.234,3.234,0,0,1,1.231-.242c1.583,0,2.374.945,2.374,2.858v3.891Z" transform="translate(-179.471 -205.054)"/>
    <path id="Path_65" data-name="Path 65" class="cls-1" d="M267.33,221.545H265v-6.617h2.352v6.617Zm-.176-8.156a.962.962,0,0,1-.286.7.929.929,0,0,1-.7.286,1.021,1.021,0,0,1-.506-.132.9.9,0,0,1-.352-.352,1.019,1.019,0,0,1,.154-1.209.929.929,0,0,1,.7-.286.962.962,0,0,1,.7.286A1.059,1.059,0,0,1,267.154,213.389Z" transform="translate(-210.132 -196.551)"/>
    <path id="Path_66" data-name="Path 66" class="cls-1" d="M287.657,229.741c-.2.066-.4.132-.615.2a5.977,5.977,0,0,1-.725.154,5.5,5.5,0,0,1-.879.066,4.25,4.25,0,0,1-1.846-.374,3.109,3.109,0,0,1-1.165-.923,3.717,3.717,0,0,1-.572-1.143,3.771,3.771,0,0,1-.154-1.011,3.651,3.651,0,0,1,.154-1.011,3.328,3.328,0,0,1,.55-1.121,3.026,3.026,0,0,1,1.143-.9,4.251,4.251,0,0,1,1.847-.374,5.424,5.424,0,0,1,2.132.4v1.847a6.569,6.569,0,0,0-1.781-.374,1.749,1.749,0,0,0-1.1.374,1.351,1.351,0,0,0-.484,1.165,1.591,1.591,0,0,0,.242.879,1.421,1.421,0,0,0,.616.528,1.856,1.856,0,0,0,.747.176,3.594,3.594,0,0,0,.791-.11c.308-.066.659-.176,1.1-.308Z" transform="translate(-223.161 -205.054)"/>
    <path id="Path_67" data-name="Path 67" class="cls-1" d="M319.844,229.875c-.352.132-.659.242-.945.33a3.631,3.631,0,0,1-1.055.132,1.256,1.256,0,0,1-.813-.2,1.128,1.128,0,0,1-.33-.506,3.53,3.53,0,0,1-.835.506,3.084,3.084,0,0,1-1.209.2,2.483,2.483,0,0,1-1.165-.242,1.32,1.32,0,0,1-.616-.638,1.976,1.976,0,0,1-.176-.791,1.629,1.629,0,0,1,.308-1.011,2.322,2.322,0,0,1,.835-.659,9.259,9.259,0,0,1,1.385-.528c.33-.11.571-.176.747-.242a1.748,1.748,0,0,0,.374-.132,1.357,1.357,0,0,0,.264-.11,1.211,1.211,0,0,0-.2-.747,1.023,1.023,0,0,0-.835-.264,3.173,3.173,0,0,0-1.429.33,4.594,4.594,0,0,0-1.209.879v-1.8a4.872,4.872,0,0,1,.945-.506,4.151,4.151,0,0,1,1.055-.286,6.423,6.423,0,0,1,1.121-.088,3.459,3.459,0,0,1,2.154.55,1.829,1.829,0,0,1,.725,1.539v2.55a1.773,1.773,0,0,0,.066.55.257.257,0,0,0,.242.176,1.329,1.329,0,0,0,.593-.2Zm-3.253-1.275v-1.561a5.01,5.01,0,0,0-1.209.616.808.808,0,0,0-.374.725.631.631,0,0,0,.2.506.7.7,0,0,0,.44.176,1,1,0,0,0,.484-.132A4.643,4.643,0,0,0,316.591,228.6Z" transform="translate(-247.346 -205.211)"/>
  </g>
  <g id="Group_8" data-name="Group 8" transform="translate(2.924 62.804)">
    <path id="Path_68" data-name="Path 68" class="cls-1" d="M18.73,286.1h1.1v4.309a5.065,5.065,0,0,1-.132,1.319,4.039,4.039,0,0,1-.308.747,2.655,2.655,0,0,1-.462.528,3.411,3.411,0,0,1-2.352.769A3.542,3.542,0,0,1,14.2,293a2.656,2.656,0,0,1-.462-.528,2.771,2.771,0,0,1-.308-.725,4.916,4.916,0,0,1-.132-1.341v-4.287h1.1v4.309a3.412,3.412,0,0,0,.242,1.495,1.577,1.577,0,0,0,.747.659,2.491,2.491,0,0,0,1.187.242,2.481,2.481,0,0,0,1.583-.506,1.446,1.446,0,0,0,.462-.638,4.179,4.179,0,0,0,.132-1.275V286.1Z" transform="translate(-13.3 -286.012)"/>
    <path id="Path_69" data-name="Path 69" class="cls-1" d="M51.233,297.588v.637a1.991,1.991,0,0,1,1.495-.725,1.683,1.683,0,0,1,.857.242,1.624,1.624,0,0,1,.616.66,3.3,3.3,0,0,1,.22,1.341V302.6h-.989v-2.836a1.983,1.983,0,0,0-.242-1.1.9.9,0,0,0-.791-.33,1.448,1.448,0,0,0-1.187.7V302.6H50.2v-4.99h1.033Z" transform="translate(-42.088 -294.906)"/>
    <path id="Path_70" data-name="Path 70" class="cls-1" d="M76.572,288.3a.6.6,0,0,1,.418.176.563.563,0,0,1,.176.418.643.643,0,0,1-.176.418.6.6,0,0,1-.418.176.551.551,0,0,1-.4-.176.6.6,0,0,1-.176-.418.55.55,0,0,1,.176-.4A.5.5,0,0,1,76.572,288.3Zm-.506,2.11h.989v4.99h-.989Z" transform="translate(-62.217 -287.728)"/>
    <path id="Path_71" data-name="Path 71" class="cls-1" d="M88.915,297.9h1.077l-2.2,5.078h-.33L85.2,297.9h1.055l1.341,3.078Z" transform="translate(-69.395 -295.218)"/>
    <path id="Path_72" data-name="Path 72" class="cls-1" d="M113.406,300.082h-3.517a1.541,1.541,0,0,0,1.627,1.561,2.888,2.888,0,0,0,1.8-.616v.967a3.15,3.15,0,0,1-1.956.572,2.3,2.3,0,0,1-1.341-.352,2.383,2.383,0,0,1-.813-.923,2.939,2.939,0,0,1-.308-1.341,2.653,2.653,0,0,1,.637-1.847,2.131,2.131,0,0,1,1.671-.7,1.989,1.989,0,0,1,1.583.7,2.762,2.762,0,0,1,.594,1.868v.11Zm-3.473-.594h2.506a1.357,1.357,0,0,0-.352-.9,1.126,1.126,0,0,0-.857-.33,1.248,1.248,0,0,0-.879.33A1.507,1.507,0,0,0,109.933,299.488Z" transform="translate(-87.885 -294.828)"/>
    <path id="Path_73" data-name="Path 73" class="cls-1" d="M136.511,297.51v1.143l.044-.088c.484-.769.945-1.165,1.429-1.165a1.766,1.766,0,0,1,1.165.572l-.528.857a1.446,1.446,0,0,0-.945-.484,1.059,1.059,0,0,0-.835.462,1.67,1.67,0,0,0-.352,1.077V302.5H135.5v-4.99Z" transform="translate(-108.637 -294.828)"/>
    <path id="Path_74" data-name="Path 74" class="cls-1" d="M155.4,302.126v-1.055a5.637,5.637,0,0,0,.857.484,1.724,1.724,0,0,0,.725.176.876.876,0,0,0,.528-.154.432.432,0,0,0,.22-.374.41.41,0,0,0-.154-.352,3.457,3.457,0,0,0-.616-.418,4.575,4.575,0,0,1-1.253-.9,1.268,1.268,0,0,1-.286-.813,1.21,1.21,0,0,1,.44-.945A1.742,1.742,0,0,1,157,297.4a3.026,3.026,0,0,1,1.495.418v.967a3.018,3.018,0,0,0-1.429-.528.721.721,0,0,0-.462.132.417.417,0,0,0-.176.33.458.458,0,0,0,.154.33,1.952,1.952,0,0,0,.572.374l.352.2c.835.462,1.253.989,1.253,1.561a1.219,1.219,0,0,1-.484,1.011,1.881,1.881,0,0,1-1.231.4,2.909,2.909,0,0,1-.791-.088A7.867,7.867,0,0,1,155.4,302.126Z" transform="translate(-124.163 -294.828)"/>
    <path id="Path_75" data-name="Path 75" class="cls-1" d="M176.772,288.3a.6.6,0,0,1,.418.176.563.563,0,0,1,.176.418.643.643,0,0,1-.176.418.6.6,0,0,1-.418.176.551.551,0,0,1-.4-.176.6.6,0,0,1-.176-.418.551.551,0,0,1,.176-.4A.5.5,0,0,1,176.772,288.3Zm-.484,2.11h.989v4.99h-.989Z" transform="translate(-140.39 -287.728)"/>
    <path id="Path_76" data-name="Path 76" class="cls-1" d="M185.222,295.025l1.847-1.825v1.033h1.583v.879h-1.583v2.44c0,.572.242.857.7.857a2.144,2.144,0,0,0,1.121-.352v.923a2.425,2.425,0,0,1-1.253.33,1.588,1.588,0,0,1-1.121-.4,2.638,2.638,0,0,1-.242-.264,1.35,1.35,0,0,1-.154-.4,4.1,4.1,0,0,1-.066-.923v-2.22H185.2v-.088Z" transform="translate(-147.412 -291.551)"/>
    <path id="Path_77" data-name="Path 77" class="cls-1" d="M208.939,299.488v2.132c0,.176.066.264.176.264a1.171,1.171,0,0,0,.55-.264v.594a1.889,1.889,0,0,1-.55.286,1.582,1.582,0,0,1-.418.088c-.418,0-.682-.176-.747-.506a2.1,2.1,0,0,1-1.341.484,1.1,1.1,0,0,1-.857-.352,1.128,1.128,0,0,1-.352-.857,1.218,1.218,0,0,1,.33-.835,2.425,2.425,0,0,1,.967-.593l1.275-.44v-.264a.8.8,0,0,0-.9-.9,2.225,2.225,0,0,0-1.583.835v-1.077a2.018,2.018,0,0,1,1.649-.681,1.88,1.88,0,0,1,1.3.418,1.534,1.534,0,0,1,.286.352,1.838,1.838,0,0,1,.176.44A7.28,7.28,0,0,1,208.939,299.488Zm-.967,2.022v-1.473l-.659.264a2.2,2.2,0,0,0-.7.4.716.716,0,0,0-.22.506.677.677,0,0,0,.7.7A1.457,1.457,0,0,0,207.972,301.511Z" transform="translate(-163.172 -294.828)"/>
    <path id="Path_78" data-name="Path 78" class="cls-1" d="M226,295.025l1.847-1.825v1.033h1.583v.879h-1.583v2.44c0,.572.242.857.7.857a2.145,2.145,0,0,0,1.121-.352v.923a2.425,2.425,0,0,1-1.253.33,1.587,1.587,0,0,1-1.121-.4,2.633,2.633,0,0,1-.242-.264,1.351,1.351,0,0,1-.154-.4,4.093,4.093,0,0,1-.066-.923v-2.22H226Z" transform="translate(-179.243 -291.551)"/>
    <path id="Path_79" data-name="Path 79" class="cls-1" d="M265.139,286.1h.989v7.584h-2.11a2.3,2.3,0,0,1-1.759-.7,2.621,2.621,0,0,1-.659-1.868,2.454,2.454,0,0,1,.682-1.8,2.32,2.32,0,0,1,1.759-.7,2.858,2.858,0,0,1,1.077.22V286.1Zm0,6.727v-3.165a2.065,2.065,0,0,0-.923-.242,1.464,1.464,0,0,0-1.165.484,1.889,1.889,0,0,0-.44,1.3,1.785,1.785,0,0,0,.374,1.187.959.959,0,0,0,.484.33,3.045,3.045,0,0,0,.923.088h.747Z" transform="translate(-207.017 -286.012)"/>
    <path id="Path_80" data-name="Path 80" class="cls-1" d="M292.506,300.082h-3.517a1.541,1.541,0,0,0,1.627,1.561,2.888,2.888,0,0,0,1.8-.616v.967a3.767,3.767,0,0,1-.9.44,3.849,3.849,0,0,1-1.055.132,2.3,2.3,0,0,1-1.341-.352,2.385,2.385,0,0,1-.813-.923A2.939,2.939,0,0,1,288,299.95a2.653,2.653,0,0,1,.637-1.847,2.131,2.131,0,0,1,1.671-.7,1.989,1.989,0,0,1,1.583.7,2.762,2.762,0,0,1,.594,1.868v.11Zm-3.5-.594h2.506a1.357,1.357,0,0,0-.352-.9,1.126,1.126,0,0,0-.857-.33,1.248,1.248,0,0,0-.879.33A1.646,1.646,0,0,0,289.011,299.488Z" transform="translate(-227.614 -294.828)"/>
    <path id="Path_81" data-name="Path 81" class="cls-1" d="M333.753,289.635h2.55v3.21a7.1,7.1,0,0,1-2.77.615,4.158,4.158,0,0,1-3.012-1.1,3.616,3.616,0,0,1-1.121-2.7,3.829,3.829,0,0,1,1.165-2.836,3.959,3.959,0,0,1,2.924-1.121,5.365,5.365,0,0,1,1.209.132,10.621,10.621,0,0,1,1.451.506v1.1a5.3,5.3,0,0,0-2.682-.791,2.969,2.969,0,0,0-2.088,5.056,3.021,3.021,0,0,0,2.2.813,5.249,5.249,0,0,0,1.561-.308l.11-.022V290.6H333.8v-.967Z" transform="translate(-259.913 -285.7)"/>
    <path id="Path_82" data-name="Path 82" class="cls-1" d="M368.472,288.3a.6.6,0,0,1,.418.176.563.563,0,0,1,.176.418.643.643,0,0,1-.176.418.6.6,0,0,1-.418.176.551.551,0,0,1-.4-.176.6.6,0,0,1-.176-.418.551.551,0,0,1,.176-.4A.5.5,0,0,1,368.472,288.3Zm-.484,2.11h.989v4.99h-.989Z" transform="translate(-289.95 -287.728)"/>
    <path id="Path_83" data-name="Path 83" class="cls-1" d="M381.011,297.51v1.143l.044-.088c.484-.769.945-1.165,1.429-1.165a1.766,1.766,0,0,1,1.165.572l-.528.857a1.446,1.446,0,0,0-.945-.484,1.059,1.059,0,0,0-.835.462,1.67,1.67,0,0,0-.352,1.077V302.5H380v-4.99Z" transform="translate(-299.39 -294.828)"/>
    <path id="Path_84" data-name="Path 84" class="cls-1" d="M401.182,297.8a2.6,2.6,0,0,1,1.891.725,2.436,2.436,0,0,1,.747,1.846,2.391,2.391,0,0,1-.769,1.8,2.658,2.658,0,0,1-1.934.7,2.552,2.552,0,0,1-1.869-.725,2.372,2.372,0,0,1-.747-1.8,2.439,2.439,0,0,1,.769-1.825A2.656,2.656,0,0,1,401.182,297.8Zm-.044.9a1.556,1.556,0,0,0-1.165.462,1.607,1.607,0,0,0-.462,1.187,1.556,1.556,0,0,0,.462,1.165,1.624,1.624,0,0,0,1.209.462,1.58,1.58,0,0,0,1.649-1.627,1.575,1.575,0,0,0-.484-1.187A1.694,1.694,0,0,0,401.138,298.7Z" transform="translate(-313.823 -295.14)"/>
    <path id="Path_85" data-name="Path 85" class="cls-1" d="M429.233,297.588v.637a1.991,1.991,0,0,1,1.495-.725,1.683,1.683,0,0,1,.857.242,1.624,1.624,0,0,1,.616.66,3.3,3.3,0,0,1,.22,1.341V302.6h-.989v-2.836a1.982,1.982,0,0,0-.242-1.1.9.9,0,0,0-.791-.33,1.448,1.448,0,0,0-1.187.7V302.6H428.2v-4.99h1.033Z" transform="translate(-336.994 -294.906)"/>
    <path id="Path_86" data-name="Path 86" class="cls-1" d="M456.539,299.488v2.132c0,.176.066.264.176.264a1.171,1.171,0,0,0,.55-.264v.594a1.891,1.891,0,0,1-.55.286,1.582,1.582,0,0,1-.418.088c-.418,0-.681-.176-.747-.506a2.1,2.1,0,0,1-1.341.484,1.1,1.1,0,0,1-.857-.352,1.128,1.128,0,0,1-.352-.857,1.218,1.218,0,0,1,.33-.835,2.425,2.425,0,0,1,.967-.593l1.275-.44v-.264a.8.8,0,0,0-.9-.9,2.225,2.225,0,0,0-1.583.835v-1.077a2.018,2.018,0,0,1,1.649-.681,1.88,1.88,0,0,1,1.3.418,1.53,1.53,0,0,1,.286.352,2.27,2.27,0,0,1,.176.44A7.242,7.242,0,0,1,456.539,299.488Zm-.967,2.022v-1.473l-.66.264a2.2,2.2,0,0,0-.7.4.716.716,0,0,0-.22.506.677.677,0,0,0,.7.7A1.515,1.515,0,0,0,455.572,301.511Z" transform="translate(-356.343 -294.828)"/>
  </g>
  <g id="Group_9" data-name="Group 9">
    <path id="Path_87" data-name="Path 87" class="cls-1" d="M246.834,3.253a7.372,7.372,0,0,1,3.275,5.452c.769,7.078-6.683,16.333-8.617,18.6h1.715c3.627-4.462,13.783-18.443,4.375-25.126A13.119,13.119,0,0,0,239.8,0V1.319A12.032,12.032,0,0,1,246.834,3.253Z" transform="translate(-187.086 0)"/>
    <path id="Path_88" data-name="Path 88" class="cls-1" d="M239.8,0Z" transform="translate(-187.086)"/>
    <path id="Path_89" data-name="Path 89" class="cls-1" d="M0,27.3H2.132c3.517-2.726,9.562-7.276,16.531-11.761C28.731,9.057,42.8,1.319,52.714,1.319V0h0C35.678,0,7.562,21.323,0,27.3Z"/>
  </g>
  <path id="Path_90" data-name="Path 90" class="cls-1" d="M345.6,115.6c-1.6-2.484-4.243-2.484-7.628-3.671-3.363-1.165-4.836-3.957-9.672-5.122a11.233,11.233,0,0,0-2.55-.308c-3.935,0-7.738,2.022-11.233,3.891-3.737,1.978-13.014,4.946-15.212,5.65v1.407l.088-.044c1.473-.462,11.673-3.671,15.74-5.847,3.451-1.825,6.99-3.715,10.617-3.715a9.483,9.483,0,0,1,2.242.264,14.514,14.514,0,0,1,5.54,2.792,14.991,14.991,0,0,0,4,2.286c.923.33,1.781.55,2.55.769,2.286.616,3.517,1.011,4.4,2.374.572.9,1.011,2.814.66,3.473-.022.044-.066.11-.308.11a1.777,1.777,0,0,1-.33-.022c-.44-.088-.923-.176-1.407-.286a21.092,21.092,0,0,0-4.968-.659c-3.231,0-6.947.923-11.365,2.792-6.2,2.638-8.507,4.748-10.2,6.287a9.474,9.474,0,0,1-3.231,2.2,1.668,1.668,0,0,1-.242.088v1.407c.22-.088.462-.176.725-.286,4.111-1.6,3.517-4.243,13.475-8.507,4.9-2.088,8.287-2.682,10.837-2.682a28.63,28.63,0,0,1,6.155.945,2.511,2.511,0,0,0,.55.044C347.53,121.228,346.563,117.118,345.6,115.6Z" transform="translate(-233.506 -83.089)"/>
</svg>
