<svg version="1.1" class="main-header__mobile-brand-svg -white" role="img" aria-labelledby="udg-mobile-brand-white" xmlns="http://www.w3.org/2000/svg" xmlns:xlink="http://www.w3.org/1999/xlink" x="0px" y="0px" width="60px" height="60px" viewBox="0 0 60 60" enable-background="new 0 0 60 60" xml:space="preserve">

            <g>
                <title id="udg-mobile-brand-white">UdG Home</title>
                <path fill="#FFFFFF" d="M18.7,30.8c0,1.6,0.8,2.5,2.3,2.5c1.6,0,2.6-0.7,2.6-2.6v-4.3c0-0.8-0.4-0.9-1.3-1v-0.6h3.5v0.6
		c-0.9,0-1.3,0.2-1.3,1V31c0,2.3-1.7,3.3-3.7,3.3c-2.4,0-3.9-1.1-3.9-3.4v-4.6c0-0.8-0.4-0.9-1.3-1v-0.6H20v0.6
		c-0.9,0-1.3,0.2-1.3,1V30.8z">
                </path>
                <path fill="#FFFFFF" d="M28.1,30.4c0,1.6,0.6,2.8,2,2.8c0.6,0,1.1-0.2,1.5-0.5v-3.4c0-1.2-0.6-1.7-1.5-1.7
		C28.8,27.6,28.1,28.8,28.1,30.4 M31.5,33.1c-0.5,0.7-1.2,1.2-2.2,1.2c-1.8,0-2.8-1.4-2.8-3.4c0-2.5,1.5-4.1,3.5-4.1
		c0.7,0,1.3,0.2,1.6,0.6v-2L30.6,25v-0.3l2.2-0.6h0.4v8.7c0,0.5,0.1,0.6,0.7,0.6l0.3,0v0.6l-2.4,0.5h-0.3V33.1z">
                </path>
                <path fill="#FFFFFF" d="M39.9,24.6c1.4,0,2.4,0.4,3.1,0.9v2.1h-0.7c-0.4-1.5-1.2-2.2-2.4-2.2c-2,0-2.9,1.8-2.9,3.9
		c0,2.4,0.9,4.3,3,4.3c0.7,0,1.1-0.1,1.6-0.5v-1.8c0-0.8-0.4-0.9-1.2-1v-0.6h4v0.6c-0.9,0-1.2,0.2-1.2,1v2.1c-0.9,0.6-2,1-3.4,1
		c-3,0-4.7-1.9-4.7-4.7C35.1,26.6,37.2,24.6,39.9,24.6">
                </path>
                <path fill="#FFFFFF" d="M30.2,12.5c0.3,1.5,1.1,2.6,3.1,2.6h6.9c2.5,0,4,2.1,4,5.1h-0.7c-0.2-1.8-1-2.8-3.1-2.8h-7
		c-2.1,0-2.9-1.1-3.5-3.1c-0.6,2.1-1.4,3.1-3.5,3.1h-7c-2.1,0-2.9,1.1-3.1,2.8h-0.7c0-3,1.5-5.1,4-5.1h6.9c2,0,2.8-1.1,3.1-2.6H30.2
		z">
                </path>
                <path fill="#FFFFFF" d="M29.9,47.5c-0.3-1.5-1.1-2.6-3.1-2.6h-6.9c-2.5,0-4-2.1-4-5.1h0.7c0.2,1.8,1,2.8,3.1,2.8h7
		c2.1,0,2.9,1.1,3.5,3.1c0.6-2.1,1.4-3.1,3.5-3.1h7c2.1,0,2.9-1.1,3.1-2.8h0.7c0,3-1.5,5.1-4,5.1h-6.9c-2,0-2.8,1.1-3.1,2.6H29.9z">
                </path>
            </g>
        </svg>