<svg xmlns="http://www.w3.org/2000/svg" xmlns:xlink="http://www.w3.org/1999/xlink" width="275" height="38" viewBox="0 0 275 38">
    <defs>
        <path id="a" d="M0 .845h229.144v21.03H0z"/>
    </defs>
    <g fill="none" fill-rule="evenodd">
        <path fill="#002D72" d="M0 0v18.328c0 9.064 5.722 16.604 14.144 19.525l.355-.123c8.024-2.785 13.787-10.418 13.787-19.402V0H0zm14.148 29.115c-1.99 0-6.72-.693-6.86-3.496L7.278 8.025h1.196v7.468a5.65 5.65 0 0 1 1.09-.642 8.975 8.975 0 0 1 1.681-.556l.383 1.813c-.49.115-.928.262-1.298.43-1.014.461-1.196.908-1.196 1.065 0 .158.182.604 1.196 1.064.929.423 2.277.708 3.817.708s2.889-.285 3.818-.708c1.014-.46 1.196-.906 1.196-1.064 0-.157-.183-.604-1.196-1.065a7.27 7.27 0 0 0-1.409-.455l.417-1.78c1.017.225 2.048.588 2.814 1.14l.023-7.418h1.197l.005 17.464c0 2.91-4.843 3.626-6.865 3.626zm-2.136-16.582h4.262l-.67 5.204h-2.922l-.67-5.204zm9.732-5.54h-7.105v4.547h-.993V6.993H6.543V5.795h15.2v1.198z"/>
        <g transform="translate(45 7.95)">
            <mask id="b" fill="#fff">
                <use xlink:href="#a"/>
            </mask>
            <path fill="#002D72" d="M219.68 21.845c-1.444 0-2.741-.182-3.896-.547-1.153-.367-2.134-.926-2.941-1.675-.809-.772-1.435-1.734-1.876-2.89-.424-1.173-.635-2.55-.635-4.132V1.249h5.683v11.238c0 1.463.337 2.554 1.011 3.264.673.694 1.576 1.041 2.71 1.041 1.135 0 2.041-.337 2.714-1.012.673-.674 1.01-1.724 1.01-3.149V1.25h5.684v11.209c0 1.636-.231 3.052-.693 4.246-.443 1.176-1.078 2.147-1.904 2.919-.808.75-1.799 1.308-2.971 1.675-1.155.365-2.453.547-3.896.547zm-23.373.03c-1.557 0-3-.27-4.329-.807-1.327-.559-2.47-1.31-3.431-2.255a10.482 10.482 0 0 1-2.28-3.32 10.337 10.337 0 0 1-.808-4.075c0-1.502.27-2.86.808-4.131a10.2 10.2 0 0 1 2.309-3.352 10.485 10.485 0 0 1 3.462-2.251c1.325-.559 2.769-.839 4.326-.839 1.558 0 3 .28 4.33.839 1.325.538 2.47 1.28 3.43 2.224.963.945 1.713 2.05 2.253 3.322.558 1.271.835 2.628.835 4.071 0 1.504-.277 2.87-.835 4.161-.54 1.27-1.299 2.387-2.28 3.351-.98.945-2.136 1.696-3.463 2.255-1.327.536-2.769.808-4.327.808zm.057-5.054a5.02 5.02 0 0 0 3.723-1.588 5.63 5.63 0 0 0 1.038-1.735c.25-.655.374-1.348.374-2.08 0-.789-.125-1.483-.374-2.138a5.374 5.374 0 0 0-1.066-1.734 5.11 5.11 0 0 0-1.646-1.184 4.766 4.766 0 0 0-2.106-.462c-.77 0-1.474.144-2.106.434a5.179 5.179 0 0 0-1.617 1.184 5.246 5.246 0 0 0-1.037 1.704 6.158 6.158 0 0 0-.347 2.08c0 .79.126 1.484.375 2.139.249.653.595 1.232 1.038 1.732.463.502 1.01.906 1.645 1.214a5.04 5.04 0 0 0 2.106.434zM166.67 1.25h8.655c1.27 0 2.423.163 3.462.49 1.038.31 1.924.772 2.654 1.387a5.86 5.86 0 0 1 1.673 2.225c.404.887.608 1.889.608 3.005 0 1.252-.223 2.3-.665 3.206a6.33 6.33 0 0 1-1.788 2.283c-.772.615-1.696 1.079-2.772 1.388-1.056.305-2.21.46-3.46.46h-2.77v5.779h-5.597V1.249zm8.251 10.052c1 0 1.779-.229 2.337-.69.576-.482.866-1.13.866-1.936 0-.925-.29-1.582-.866-2.024-.558-.461-1.346-.693-2.367-.693h-2.625v5.343h2.655zM108.368 1.105h5.393l8.598 20.367h-6l-1.47-3.611h-7.791l-1.442 3.61h-5.887l8.599-20.366zm4.906 12.393L111.02 7.75l-2.278 5.748h4.532zM91.2 21.47h5.626V1.25H91.2v20.22zm-12.32.406c-1.442 0-2.798-.261-4.068-.78a10.194 10.194 0 0 1-3.318-2.169 11.002 11.002 0 0 1-2.222-3.32c-.537-1.291-.808-2.685-.808-4.189 0-1.522.271-2.889.808-4.16a10.34 10.34 0 0 1 2.222-3.35 10.056 10.056 0 0 1 3.345-2.254c1.31-.54 2.734-.809 4.272-.809 1.039 0 1.98.105 2.826.318a8.695 8.695 0 0 1 2.309.866c.712.366 1.347.81 1.905 1.33.575.52 1.086 1.087 1.529 1.704l-4.214 3.263c-.575-.73-1.21-1.308-1.903-1.732-.692-.426-1.53-.636-2.51-.636a4.45 4.45 0 0 0-1.96.432 4.568 4.568 0 0 0-1.504 1.128 5.617 5.617 0 0 0-1.009 1.704 6.23 6.23 0 0 0-.345 2.08c0 .81.115 1.52.345 2.196.25.654.588 1.222 1.01 1.704.425.482.923.867 1.503 1.157a4.716 4.716 0 0 0 1.96.404c.519 0 .99-.059 1.414-.175a4.34 4.34 0 0 0 1.183-.492c.364-.23.7-.49 1.01-.78.326-.306.643-.643.95-1.009l4.214 3.004c-.48.655-1.01 1.262-1.587 1.822a8.566 8.566 0 0 1-1.933 1.443 9.77 9.77 0 0 1-2.422.951c-.887.232-1.887.349-3.002.349zM47.548 1.249h9.55c1.557 0 2.876.193 3.953.578 1.077.387 1.952.924 2.625 1.618 1.193 1.155 1.79 2.723 1.79 4.71 0 1.615-.376 2.907-1.126 3.927-.751 1.022-1.76 1.8-3.03 2.342l4.819 7.048h-6.463l-4.07-6.125h-2.45v6.125h-5.598V1.249zm9.29 9.707c.961 0 1.702-.213 2.22-.635.52-.444.78-1.032.78-1.763 0-.867-.268-1.465-.807-1.847-.539-.407-1.279-.609-2.221-.609h-3.665v4.854h3.693zm-26.11-9.851h5.397l8.594 20.367H38.72l-1.471-3.611h-7.791l-1.442 3.61H22.13l8.6-20.366zm4.904 12.393l-2.25-5.748-2.278 5.748h4.528zm-24.64 8.378c-1.577 0-3.038-.251-4.385-.751a10.7 10.7 0 0 1-3.464-2.167 10.02 10.02 0 0 1-2.306-3.293C.278 14.375 0 12.959 0 11.418c0-1.522.27-2.889.807-4.16a10.472 10.472 0 0 1 2.28-3.35 10.208 10.208 0 0 1 3.434-2.254c1.346-.54 2.798-.809 4.355-.809 1.79 0 3.328.26 4.618.78 1.308.52 2.5 1.241 3.578 2.166l-3.29 3.96a8.857 8.857 0 0 0-2.25-1.417c-.751-.326-1.625-.491-2.626-.491-.73 0-1.414.144-2.049.433A5.144 5.144 0 0 0 7.242 7.46a5.687 5.687 0 0 0-1.097 1.762 5.819 5.819 0 0 0-.404 2.167c0 .868.136 1.616.404 2.311a5.41 5.41 0 0 0 1.124 1.793c.503.48 1.08.866 1.734 1.153.673.27 1.412.406 2.22.406 1.31 0 2.387-.28 3.231-.839v-2.456h-3.982v-4.1h9.291v12.219l-2.953-1.272a15.13 15.13 0 0 1-.855.375c-1.461.598-3.116.897-4.963.897z" mask="url(#b)"/>
        </g>
        <path fill="#A6A8AB" d="M192.292 9.199h14.973v3.178H195.84v5.257h10.126v3.176H195.84v5.432h11.57v3.178h-15.118V9.2zm-21.696 0h7.53c1.575 0 3.02.26 4.326.78 1.328.5 2.463 1.202 3.405 2.109a9.28 9.28 0 0 1 2.221 3.205c.522 1.214.781 2.533.781 3.958 0 1.483-.26 2.813-.78 4.044a9.246 9.246 0 0 1-2.222 3.207c-.942.906-2.077 1.619-3.405 2.14-1.307.519-2.751.778-4.326.778h-7.53V9.2zm7.53 16.987c1.056 0 2.019-.165 2.884-.492.867-.347 1.596-.818 2.194-1.416a6.312 6.312 0 0 0 1.414-2.166 7.18 7.18 0 0 0 .518-2.744c0-1.041-.172-1.954-.518-2.803a5.96 5.96 0 0 0-1.414-2.166c-.598-.618-1.327-1.1-2.194-1.445-.865-.347-1.828-.52-2.884-.52h-3.982v13.752h3.982z"/>
    </g>
</svg>
