<svg xmlns="http://www.w3.org/2000/svg" width="576" height="191" viewBox="0 0 576 191" version="1.1"><path d="M 422.750 98.743 C 426.738 98.932, 433.262 98.932, 437.250 98.743 C 441.238 98.553, 437.975 98.397, 430 98.397 C 422.025 98.397, 418.762 98.553, 422.750 98.743" stroke="none" fill="#2024c4" fill-rule="evenodd"/><path d="M 279.436 9.413 C 275.586 11.089, 269.404 18.219, 268.699 21.794 C 266.358 33.674, 279.897 40.262, 291.114 32.702 C 298.247 27.895, 301.247 18.653, 297.439 13.217 C 294.012 8.324, 285.881 6.606, 279.436 9.413 M 23.181 69.250 C 15.912 102.388, 9.973 131.571, 9.982 134.102 C 10.002 139.209, 12.591 143.902, 17.323 147.408 C 19.812 149.252, 21.541 149.500, 31.920 149.500 C 46.597 149.500, 47 149.244, 47 139.930 L 47 133.105 41.769 132.802 C 37.151 132.535, 36.432 132.194, 35.622 129.880 C 34.911 127.848, 37.545 114.356, 47.353 69.796 C 54.309 38.191, 60 11.583, 60 10.666 C 60 9.205, 58.545 9, 48.198 9 L 36.396 9 23.181 69.250 M 307 83.419 L 307 149 315.500 149 L 324 149 324 120 L 324 91 329.540 91 C 336.219 91, 341.744 93.549, 345.705 98.458 C 347.242 100.362, 353.259 112.401, 359.075 125.210 L 369.650 148.500 383.977 148.500 L 398.304 148.500 402.485 132.500 C 404.785 123.700, 406.975 115.263, 407.352 113.750 L 408.038 111 429.852 111 L 451.667 111 456.415 128.250 C 459.026 137.738, 461.381 146.287, 461.649 147.250 C 462.086 148.823, 463.745 149, 478.067 149 L 494 149 494 83.500 L 494 18 485.500 18 L 477 18 477 75.500 C 477 111.102, 476.639 133, 476.051 133 C 474.840 133, 474.656 132.394, 457.089 70.500 L 442.330 18.500 430.242 18.220 C 419.376 17.968, 418.100 18.120, 417.622 19.720 C 417.329 20.699, 409.849 46.925, 401 78 C 392.151 109.075, 384.664 135.321, 384.364 136.324 C 383.852 138.034, 381.033 132.524, 367.568 103.500 C 363.573 94.887, 359.995 90.548, 354.634 87.814 L 350.520 85.715 354.724 84.473 C 364.744 81.515, 372.324 74.862, 376.860 65.046 C 379.036 60.336, 379.418 58.110, 379.388 50.286 C 379.357 42.095, 379.026 40.432, 376.409 35.314 C 372.993 28.635, 366.488 23.185, 358.634 20.424 C 354.407 18.937, 349.395 18.549, 330.250 18.228 L 307 17.839 307 83.419 M 510 83.500 L 510 149 539.500 149 L 569 149 569 141.500 L 569 134 548 134 L 527 134 527 76 L 527 18 518.500 18 L 510 18 510 83.500 M 420.679 64.179 C 415.839 82.347, 412.169 97.502, 412.523 97.856 C 413.306 98.639, 446.607 98.727, 447.385 97.948 C 447.689 97.644, 445.004 86.619, 441.419 73.448 C 437.833 60.277, 433.814 45.504, 432.487 40.621 C 431.161 35.737, 429.941 31.607, 429.776 31.443 C 429.612 31.279, 425.518 46.010, 420.679 64.179 M 324 55 L 324 78 331.451 78 C 351.569 78, 360.703 70.889, 361.781 54.387 C 362.354 45.612, 360.948 41.040, 356.466 37.105 C 351.849 33.051, 347.426 32.012, 334.750 32.006 L 324 32 324 55 M 106.500 50.996 C 83.617 54.572, 65.954 73.726, 60.450 100.935 C 58.450 110.820, 58.899 123.868, 61.490 131.195 C 63.664 137.342, 69.853 144.266, 75.706 147.099 C 82.213 150.250, 99.024 151.007, 107.534 148.533 C 130.108 141.971, 144.545 123.056, 148.060 95.435 C 150.651 75.084, 144.142 59.511, 130.506 53.436 C 124.821 50.903, 114.082 49.811, 106.500 50.996 M 205.500 51.049 C 193.122 52.655, 181.524 59.256, 171.109 70.623 C 152.493 90.938, 146.222 126.385, 158.671 140.929 C 163.405 146.459, 169 148.375, 178.733 147.799 C 187.338 147.290, 194.147 144.792, 200.250 139.907 C 202.313 138.256, 204 137.200, 204 137.559 C 204 137.918, 203.287 140.976, 202.416 144.356 C 199.174 156.935, 193.309 163.788, 182.715 167.378 C 176.101 169.620, 163.746 169.488, 156.053 167.094 L 149.928 165.187 145.899 173.202 C 143.682 177.610, 142.085 181.778, 142.348 182.465 C 143.166 184.596, 150.960 186.075, 164.591 186.685 C 185.812 187.636, 200.121 183.337, 211.835 172.493 C 218.808 166.036, 223.115 158.364, 225.863 147.500 C 229.222 134.224, 246 58.047, 246 56.074 C 246 54.731, 244.788 53.932, 241.494 53.103 C 233.471 51.083, 213.865 49.964, 205.500 51.049 M 252.415 54.750 C 252.072 56.263, 251.163 60.040, 250.396 63.144 C 249.628 66.249, 249 69.061, 249 69.394 C 249 69.727, 251.925 70, 255.500 70 C 259.075 70, 262 70.252, 262 70.560 C 262 71.329, 246.017 145.072, 245.379 147.250 C 244.909 148.850, 245.920 148.999, 257.183 148.988 L 269.500 148.976 279.890 101.738 C 285.605 75.757, 290.490 53.938, 290.747 53.250 C 291.110 52.277, 286.979 52, 272.126 52 L 253.038 52 252.415 54.750 M 105.256 68.645 C 97.098 72.667, 89.218 86.341, 85.960 102.128 C 81.609 123.213, 84.767 133.231, 95.764 133.231 C 98.453 133.231, 102.014 132.527, 103.678 131.666 C 110.817 127.975, 118.276 115.187, 121.387 101.303 C 123.479 91.968, 123.530 76.925, 121.483 72.967 C 118.620 67.431, 111.543 65.545, 105.256 68.645 M 203 68.248 C 201.075 68.887, 197.110 71.792, 194.188 74.702 C 182.577 86.268, 173.911 113.840, 178.105 125.872 C 179.475 129.803, 181.618 131, 187.284 131 C 195.464 131, 204.456 122.415, 209.001 110.267 C 211.244 104.274, 219.452 69.119, 218.769 68.436 C 217.678 67.345, 206.132 67.207, 203 68.248" stroke="none" fill="#1c24c4" fill-rule="evenodd"/></svg>