<?xml version="1.0" encoding="UTF-8"?>
<!DOCTYPE svg PUBLIC "-//W3C//DTD SVG 1.1//EN" "http://www.w3.org/Graphics/SVG/1.1/DTD/svg11.dtd">
<svg xmlns="http://www.w3.org/2000/svg" version="1.1" width="6223px" height="1692px" style="shape-rendering:geometricPrecision; text-rendering:geometricPrecision; image-rendering:optimizeQuality; fill-rule:evenodd; clip-rule:evenodd" xmlns:xlink="http://www.w3.org/1999/xlink">
<g><path style="opacity:0.999" fill="#e77c0c" d="M 484.5,-0.5 C 497.167,-0.5 509.833,-0.5 522.5,-0.5C 586.622,7.79956 633.122,40.7996 662,98.5C 669.058,115.122 673.058,132.455 674,150.5C 674.333,215.5 674.667,280.5 675,345.5C 692.239,397.739 726.739,433.239 778.5,452C 839.537,471.66 895.87,462.66 947.5,425C 973.76,403.648 991.926,376.815 1002,344.5C 1002.33,276.833 1002.67,209.167 1003,141.5C 1011.2,86.9927 1039.36,46.4927 1087.5,20C 1108.45,9.40165 1130.45,2.56832 1153.5,-0.5C 1166.17,-0.5 1178.83,-0.5 1191.5,-0.5C 1239.48,5.23775 1278.98,26.5711 1310,63.5C 1330.52,89.9005 1341.52,119.901 1343,153.5C 1343.33,217.833 1343.67,282.167 1344,346.5C 1363.13,401.632 1400.63,437.799 1456.5,455C 1527.48,473.112 1588.31,455.945 1639,403.5C 1654.3,385.23 1665.14,364.564 1671.5,341.5C 1673.5,341.5 1675.5,341.5 1677.5,341.5C 1677.67,463.167 1677.5,584.834 1677,706.5C 1667.1,771.405 1631.6,815.905 1570.5,840C 1510.75,860.32 1454.75,852.987 1402.5,818C 1366.59,791.373 1345.09,755.873 1338,711.5C 1336.7,634.853 1336.03,558.186 1336,481.5C 1318.44,430.274 1284.28,395.107 1233.5,376C 1170.63,355.534 1112.96,365.201 1060.5,405C 1035.98,425.857 1018.81,451.69 1009,482.5C 1008.67,550.167 1008.33,617.833 1008,685.5C 998.847,744.968 967.013,787.468 912.5,813C 851.517,837.926 793.183,832.926 737.5,798C 698.81,771.143 675.976,734.309 669,687.5C 667.708,618.85 667.041,550.184 667,481.5C 646.829,423.997 607.329,387.164 548.5,371C 490.074,357.444 437.407,369.111 390.5,406C 366.064,426.791 349.23,452.624 340,483.5C 339.667,557.167 339.333,630.833 339,704.5C 329.128,764.364 296.628,806.864 241.5,832C 186.102,853.915 132.102,850.915 79.5,823C 34.8255,796.148 8.15879,756.981 -0.5,705.5C -0.5,584.167 -0.5,462.833 -0.5,341.5C 1.5,341.5 3.5,341.5 5.5,341.5C 13.9166,373.162 30.5833,399.662 55.5,421C 107.855,461.95 165.855,472.283 229.5,452C 280.607,432.56 315.107,397.06 333,345.5C 333.333,277.833 333.667,210.167 334,142.5C 344.153,79.0148 378.987,35.1815 438.5,11C 453.576,5.5643 468.909,1.73097 484.5,-0.5 Z"/></g>
<g><path style="opacity:0.997" fill="#00589b" d="M 1946.5,69.5 C 2200.83,69.5 2455.17,69.5 2709.5,69.5C 2709.5,131.833 2709.5,194.167 2709.5,256.5C 2618.5,256.5 2527.5,256.5 2436.5,256.5C 2436.5,516.167 2436.5,775.833 2436.5,1035.5C 2364.5,1035.5 2292.5,1035.5 2220.5,1035.5C 2220.5,775.833 2220.5,516.167 2220.5,256.5C 2129.17,256.5 2037.83,256.5 1946.5,256.5C 1946.5,194.167 1946.5,131.833 1946.5,69.5 Z"/></g>
<g><path style="opacity:0.996" fill="#00589b" d="M 5045.5,69.5 C 5115.5,69.5 5185.5,69.5 5255.5,69.5C 5255.5,143.5 5255.5,217.5 5255.5,291.5C 5315.17,291.5 5374.83,291.5 5434.5,291.5C 5434.5,341.5 5434.5,391.5 5434.5,441.5C 5374.83,441.5 5315.17,441.5 5255.5,441.5C 5255.33,557.834 5255.5,674.167 5256,790.5C 5259.43,824.235 5276.59,847.735 5307.5,861C 5343.35,868.372 5375.35,860.372 5403.5,837C 5412.07,829.1 5419.9,820.6 5427,811.5C 5453.48,859.619 5479.31,908.119 5504.5,957C 5463.27,997.798 5414.27,1025.46 5357.5,1040C 5289.01,1054.22 5224.34,1044.22 5163.5,1010C 5088.3,961.812 5049.13,892.646 5046,802.5C 5045.5,682.167 5045.33,561.834 5045.5,441.5C 5016.5,441.5 4987.5,441.5 4958.5,441.5C 4958.5,391.5 4958.5,341.5 4958.5,291.5C 4987.5,291.5 5016.5,291.5 5045.5,291.5C 5045.5,217.5 5045.5,143.5 5045.5,69.5 Z"/></g>
<g><path style="opacity:0.998" fill="#00589b" d="M 3208.5,278.5 C 3209.5,278.5 3210.5,278.5 3211.5,278.5C 3211.76,343.834 3212.09,409.167 3212.5,474.5C 3187.77,473.915 3163.11,474.748 3138.5,477C 3087.41,485.109 3049.25,511.609 3024,556.5C 3003.31,595.93 2991.98,637.93 2990,682.5C 2988.56,800.158 2988.06,917.825 2988.5,1035.5C 2919.17,1035.5 2849.83,1035.5 2780.5,1035.5C 2780.5,787.5 2780.5,539.5 2780.5,291.5C 2849.83,291.5 2919.17,291.5 2988.5,291.5C 2988.33,323.835 2988.5,356.168 2989,388.5C 3031.12,342.501 3081.96,309.667 3141.5,290C 3163.53,283.551 3185.87,279.717 3208.5,278.5 Z"/></g>
<g><path style="opacity:0.997" fill="#00589b" d="M 4517.5,278.5 C 4624.79,276.529 4717.79,311.362 4796.5,383C 4850.49,436.83 4880.99,501.997 4888,578.5C 4888.9,587.816 4889.57,597.15 4890,606.5C 4890.5,649.832 4890.67,693.165 4890.5,736.5C 4710.17,736.5 4529.83,736.5 4349.5,736.5C 4355.69,773.73 4373.36,804.23 4402.5,828C 4451.41,866.063 4506.74,880.73 4568.5,872C 4625.38,865.311 4673.54,841.478 4713,800.5C 4751.85,842.678 4790.68,884.845 4829.5,927C 4742.9,1009.89 4639.23,1049.56 4518.5,1046C 4398.48,1044.06 4299.64,997.892 4222,907.5C 4174.83,845.688 4149.17,775.688 4145,697.5C 4139.25,628.078 4149.25,561.078 4175,496.5C 4201.62,437.206 4241.45,388.706 4294.5,351C 4361.23,303.701 4435.57,279.534 4517.5,278.5 Z M 4508.5,451.5 C 4554.61,447.267 4595.61,459.434 4631.5,488C 4660.21,515.267 4676.21,548.767 4679.5,588.5C 4571.16,588.833 4462.83,588.5 4354.5,587.5C 4361.68,541.198 4385.01,505.698 4424.5,481C 4450.39,464.873 4478.39,455.04 4508.5,451.5 Z"/></g>
<g><path style="opacity:0.997" fill="#00589b" d="M 6222.5,530.5 C 6222.5,698.833 6222.5,867.167 6222.5,1035.5C 6157.5,1035.5 6092.5,1035.5 6027.5,1035.5C 6027.67,1006.16 6027.5,976.831 6027,947.5C 5959.1,1030.14 5872.26,1061.31 5766.5,1041C 5703.01,1029.68 5649.51,1000.51 5606,953.5C 5568.58,907.749 5550.08,855.083 5550.5,795.5C 5549.6,706.392 5588.94,642.559 5668.5,604C 5707.96,586.134 5749.3,575.134 5792.5,571C 5806.47,569.558 5820.47,568.558 5834.5,568C 5894.5,567.5 5954.5,567.333 6014.5,567.5C 6016.38,537.684 6009.21,510.351 5993,485.5C 5974.48,463.987 5950.98,451.487 5922.5,448C 5882.51,443.281 5843.18,446.615 5804.5,458C 5757.15,470.925 5713.81,491.759 5674.5,520.5C 5643.29,475.794 5612.29,430.961 5581.5,386C 5665.5,324.211 5759.83,289.211 5864.5,281C 5922.71,275.184 5980.04,279.851 6036.5,295C 6153.4,330.075 6215.4,408.575 6222.5,530.5 Z M 5861.5,716.5 C 5912.17,716.5 5962.83,716.5 6013.5,716.5C 6022.89,801.902 5985.89,854.069 5902.5,873C 5870.05,877.991 5838.38,874.991 5807.5,864C 5772.8,848.457 5757.3,821.623 5761,783.5C 5764.45,759.091 5777.28,741.591 5799.5,731C 5819.48,722.67 5840.15,717.837 5861.5,716.5 Z"/></g>
<g><path style="opacity:0.996" fill="#00589b" d="M 3316.5,291.5 C 3386.5,291.5 3456.5,291.5 3526.5,291.5C 3526.33,435.167 3526.5,578.834 3527,722.5C 3528.2,752.151 3534.86,780.485 3547,807.5C 3569.28,848.324 3603.94,868.324 3651,867.5C 3714.03,864.839 3759.69,835.506 3788,779.5C 3798.59,753.562 3803.92,726.562 3804,698.5C 3804.5,562.834 3804.67,427.167 3804.5,291.5C 3874.17,291.5 3943.83,291.5 4013.5,291.5C 4013.5,539.5 4013.5,787.5 4013.5,1035.5C 3943.83,1035.5 3874.17,1035.5 3804.5,1035.5C 3804.67,1003.16 3804.5,970.832 3804,938.5C 3745.6,1021.43 3665.77,1056.6 3564.5,1044C 3479.54,1034.47 3412.37,995.299 3363,926.5C 3335.63,881.051 3320.63,831.717 3318,778.5C 3316.53,616.178 3316.03,453.844 3316.5,291.5 Z"/></g>
<g><path style="opacity:0.999" fill="#e77c0c" d="M -0.5,1522.5 C -0.5,1401.17 -0.5,1279.83 -0.5,1158.5C 1.4672,1158.26 3.30054,1158.59 5,1159.5C 21.0764,1211.25 54.2431,1247.41 104.5,1268C 164.981,1289.45 221.648,1282.12 274.5,1246C 302.564,1224.6 322.064,1197.1 333,1163.5C 333.333,1095.83 333.667,1028.17 334,960.5C 344.364,896.135 379.864,851.969 440.5,828C 505.306,806.467 564.64,816.467 618.5,858C 648.768,884.027 666.934,916.86 673,956.5C 674.292,1025.48 674.959,1094.48 675,1163.5C 691.134,1211.3 722.301,1245.47 768.5,1266C 836.17,1291.61 898.17,1281.94 954.5,1237C 977.239,1216.59 993.073,1191.76 1002,1162.5C 1002.33,1094.83 1002.67,1027.17 1003,959.5C 1012.77,900.059 1044.94,857.559 1099.5,832C 1162.61,806.814 1222.27,813.148 1278.5,851C 1314.13,877.749 1335.3,913.249 1342,957.5C 1343.28,1026.49 1343.95,1095.49 1344,1164.5C 1362.14,1217.31 1397.64,1252.81 1450.5,1271C 1514.89,1290.19 1572.89,1278.52 1624.5,1236C 1647.95,1214.93 1663.62,1189.1 1671.5,1158.5C 1673.5,1158.5 1675.5,1158.5 1677.5,1158.5C 1677.67,1280.5 1677.5,1402.5 1677,1524.5C 1669.03,1579.63 1640.87,1620.8 1592.5,1648C 1541.55,1673.5 1489.55,1675.83 1436.5,1655C 1381.6,1630.44 1348.77,1588.6 1338,1529.5C 1336.7,1452.85 1336.03,1376.18 1336,1299.5C 1318.9,1249.4 1285.74,1214.57 1236.5,1195C 1173.27,1173.15 1114.94,1182.15 1061.5,1222C 1036.07,1242.78 1018.57,1268.94 1009,1300.5C 1008.67,1368.17 1008.33,1435.83 1008,1503.5C 999.475,1558.35 970.975,1599.18 922.5,1626C 862.611,1654.73 803.611,1653.07 745.5,1621C 702.651,1594.17 677.151,1555.67 669,1505.5C 667.708,1436.85 667.041,1368.18 667,1299.5C 647.429,1243.6 609.263,1207.1 552.5,1190C 489.605,1174.11 433.605,1187.11 384.5,1229C 363.571,1248.95 348.738,1272.79 340,1300.5C 339.667,1374.5 339.333,1448.5 339,1522.5C 329.525,1581.63 297.692,1623.8 243.5,1649C 188.412,1671.65 134.412,1669.32 81.5,1642C 35.4215,1615.08 8.08816,1575.25 -0.5,1522.5 Z"/></g>
<g><path style="opacity:0.976" fill="#00589b" d="M 3369.5,1265.5 C 3392.83,1268.16 3400.33,1280.49 3392,1302.5C 3383.06,1312.81 3372.22,1315.31 3359.5,1310C 3346.96,1300.68 3344.46,1289.18 3352,1275.5C 3356.69,1269.91 3362.52,1266.58 3369.5,1265.5 Z"/></g>
<g><path style="opacity:0.977" fill="#00589b" d="M 3904.5,1265.5 C 3915.5,1265.5 3926.5,1265.5 3937.5,1265.5C 3937.5,1378.17 3937.5,1490.83 3937.5,1603.5C 3926.5,1603.5 3915.5,1603.5 3904.5,1603.5C 3904.5,1490.83 3904.5,1378.17 3904.5,1265.5 Z"/></g>
<g><path style="opacity:0.984" fill="#015799" d="M 4322.5,1265.5 C 4333.75,1265.18 4344.91,1265.51 4356,1266.5C 4356.5,1378.83 4356.67,1491.17 4356.5,1603.5C 4345.83,1603.5 4335.17,1603.5 4324.5,1603.5C 4324.67,1588.5 4324.5,1573.5 4324,1558.5C 4302.13,1590.36 4271.63,1606.36 4232.5,1606.5C 4174.9,1604.65 4136.74,1576.65 4118,1522.5C 4107.27,1482.25 4112.94,1444.59 4135,1409.5C 4163.76,1373.56 4201.26,1358.06 4247.5,1363C 4278.86,1366.59 4303.69,1381.09 4322,1406.5C 4322.5,1359.5 4322.67,1312.5 4322.5,1265.5 Z M 4223.5,1391.5 C 4277.95,1389.11 4310.79,1414.45 4322,1467.5C 4327.39,1503.35 4316.89,1533.51 4290.5,1558C 4261.59,1578.32 4230.59,1581.99 4197.5,1569C 4163.55,1550.97 4146.55,1522.47 4146.5,1483.5C 4146.52,1455.92 4156.19,1432.42 4175.5,1413C 4189.52,1401.28 4205.52,1394.11 4223.5,1391.5 Z"/></g>
<g><path style="opacity:0.977" fill="#00589b" d="M 5178.5,1265.5 C 5200.15,1267.3 5208.31,1278.63 5203,1299.5C 5196.55,1310.31 5187.05,1314.47 5174.5,1312C 5163.25,1308.51 5157.25,1300.85 5156.5,1289C 5158.24,1275.77 5165.57,1267.93 5178.5,1265.5 Z"/></g>
<g><path style="opacity:0.98" fill="#00589b" d="M 4950.5,1282.5 C 4991.84,1278.8 5030.18,1287.63 5065.5,1309C 5073.3,1314.97 5080.64,1321.47 5087.5,1328.5C 5080.5,1336.17 5073.17,1343.5 5065.5,1350.5C 5034.26,1321.48 4997.26,1309.31 4954.5,1314C 4889.43,1322.41 4849.93,1358.57 4836,1422.5C 4828.97,1474.12 4845.47,1516.29 4885.5,1549C 4928.11,1577.11 4973.77,1583.11 5022.5,1567C 5032.77,1562.87 5042.44,1557.7 5051.5,1551.5C 5052.5,1515.51 5052.83,1479.51 5052.5,1443.5C 5063.5,1443.5 5074.5,1443.5 5085.5,1443.5C 5085.67,1484.5 5085.5,1525.5 5085,1566.5C 5055.83,1590.23 5022.33,1603.4 4984.5,1606C 4925.98,1610.97 4876.81,1592.13 4837,1549.5C 4802.37,1504.37 4792.04,1454.04 4806,1398.5C 4821.51,1348.66 4853.34,1313.83 4901.5,1294C 4917.51,1288.17 4933.84,1284.34 4950.5,1282.5 Z"/></g>
<g><path style="opacity:0.984" fill="#00589b" d="M 2211.5,1284.5 C 2222.83,1284.5 2234.17,1284.5 2245.5,1284.5C 2245.5,1331.83 2245.5,1379.17 2245.5,1426.5C 2311.5,1426.5 2377.5,1426.5 2443.5,1426.5C 2443.5,1379.17 2443.5,1331.83 2443.5,1284.5C 2454.83,1284.5 2466.17,1284.5 2477.5,1284.5C 2477.5,1390.83 2477.5,1497.17 2477.5,1603.5C 2466.17,1603.5 2454.83,1603.5 2443.5,1603.5C 2443.5,1554.83 2443.5,1506.17 2443.5,1457.5C 2377.5,1457.5 2311.5,1457.5 2245.5,1457.5C 2245.5,1506.17 2245.5,1554.83 2245.5,1603.5C 2234.17,1603.5 2222.83,1603.5 2211.5,1603.5C 2211.5,1497.17 2211.5,1390.83 2211.5,1284.5 Z"/></g>
<g><path style="opacity:0.977" fill="#00589b" d="M 3474.5,1311.5 C 3485.5,1311.5 3496.5,1311.5 3507.5,1311.5C 3507.5,1329.17 3507.5,1346.83 3507.5,1364.5C 3531.83,1364.5 3556.17,1364.5 3580.5,1364.5C 3580.5,1373.83 3580.5,1383.17 3580.5,1392.5C 3556.17,1392.5 3531.83,1392.5 3507.5,1392.5C 3507.33,1442.83 3507.5,1493.17 3508,1543.5C 3510.38,1562.88 3521.21,1574.05 3540.5,1577C 3556.33,1578.63 3570.66,1574.79 3583.5,1565.5C 3587.76,1573.01 3591.76,1580.68 3595.5,1588.5C 3590.01,1594.42 3583.35,1598.58 3575.5,1601C 3549.62,1609.51 3524.62,1607.51 3500.5,1595C 3485.69,1583.89 3477.19,1569.06 3475,1550.5C 3474.5,1497.83 3474.33,1445.17 3474.5,1392.5C 3460.17,1392.5 3445.83,1392.5 3431.5,1392.5C 3431.5,1383.17 3431.5,1373.83 3431.5,1364.5C 3445.83,1364.5 3460.17,1364.5 3474.5,1364.5C 3474.5,1346.83 3474.5,1329.17 3474.5,1311.5 Z"/></g>
<g><path style="opacity:0.983" fill="#00589b" d="M 2647.5,1362.5 C 2690.7,1358.17 2727.2,1371.5 2757,1402.5C 2781.5,1434.16 2790.16,1469.82 2783,1509.5C 2771.5,1561 2740,1592.5 2688.5,1604C 2638.68,1612.51 2597.52,1597.68 2565,1559.5C 2543.4,1527.92 2536.4,1493.26 2544,1455.5C 2558.21,1401.78 2592.71,1370.78 2647.5,1362.5 Z M 2651.5,1391.5 C 2709.26,1389.1 2742.42,1416.43 2751,1473.5C 2754.26,1506.4 2744.09,1534.23 2720.5,1557C 2689.47,1579.07 2656.47,1582.4 2621.5,1567C 2590.34,1548.38 2574.68,1520.71 2574.5,1484C 2574.68,1448.28 2589.68,1420.95 2619.5,1402C 2629.72,1396.76 2640.39,1393.26 2651.5,1391.5 Z"/></g>
<g><path style="opacity:0.981" fill="#00589b" d="M 2894.5,1362.5 C 2924.56,1360.29 2953.56,1364.79 2981.5,1376C 2987.16,1378.49 2992.49,1381.49 2997.5,1385C 2992.63,1393.91 2987.63,1402.75 2982.5,1411.5C 2948.72,1390.3 2912.72,1385.46 2874.5,1397C 2850.02,1409.09 2844.52,1426.93 2858,1450.5C 2865.41,1456.95 2873.91,1461.45 2883.5,1464C 2901.06,1468.18 2918.73,1471.85 2936.5,1475C 2948.4,1477.56 2960.07,1480.89 2971.5,1485C 2996.23,1496.61 3007.39,1516.11 3005,1543.5C 3002.77,1564.48 2992.6,1580.31 2974.5,1591C 2953.17,1601.83 2930.5,1607 2906.5,1606.5C 2872.5,1606.66 2841.17,1597.83 2812.5,1580C 2810.98,1578.65 2809.65,1577.15 2808.5,1575.5C 2813.18,1566.8 2818.34,1558.47 2824,1550.5C 2862.32,1576.19 2903.82,1583.03 2948.5,1571C 2971.44,1560.06 2977.27,1543.23 2966,1520.5C 2958.2,1513.18 2949.03,1508.35 2938.5,1506C 2919.21,1501.79 2899.88,1497.79 2880.5,1494C 2859.87,1491.1 2842.37,1482.27 2828,1467.5C 2818.29,1452.93 2814.95,1436.93 2818,1419.5C 2823.11,1397.05 2836.27,1381.22 2857.5,1372C 2869.52,1367.1 2881.86,1363.94 2894.5,1362.5 Z"/></g>
<g><path style="opacity:0.98" fill="#00589b" d="M 3088.5,1691.5 C 3077.5,1691.5 3066.5,1691.5 3055.5,1691.5C 3055.5,1582.5 3055.5,1473.5 3055.5,1364.5C 3066.17,1364.5 3076.83,1364.5 3087.5,1364.5C 3087.33,1379.17 3087.5,1393.84 3088,1408.5C 3110.09,1377.29 3140.43,1361.95 3179,1362.5C 3237.59,1363.61 3275.92,1391.94 3294,1447.5C 3303.57,1486.14 3298.24,1522.47 3278,1556.5C 3253.43,1589.7 3220.27,1606.37 3178.5,1606.5C 3140.48,1606.58 3110.65,1591.24 3089,1560.5C 3088.5,1604.17 3088.33,1647.83 3088.5,1691.5 Z M 3165.5,1391.5 C 3209.9,1388.6 3241.06,1407.26 3259,1447.5C 3269.96,1480.62 3266.29,1511.96 3248,1541.5C 3222.21,1572.21 3189.71,1582.71 3150.5,1573C 3114.65,1560.47 3094.15,1535.3 3089,1497.5C 3085.15,1468.21 3092.49,1442.21 3111,1419.5C 3126.01,1403.91 3144.17,1394.58 3165.5,1391.5 Z"/></g>
<g><path style="opacity:0.984" fill="#00589b" d="M 3711.5,1362.5 C 3734.52,1360.34 3756.85,1363.17 3778.5,1371C 3806.43,1384.3 3821.93,1406.46 3825,1437.5C 3825.5,1492.83 3825.67,1548.17 3825.5,1603.5C 3815.17,1603.5 3804.83,1603.5 3794.5,1603.5C 3794.67,1591.83 3794.5,1580.16 3794,1568.5C 3778.8,1590.02 3757.97,1602.19 3731.5,1605C 3711.15,1607.53 3691.15,1605.86 3671.5,1600C 3634.01,1584.87 3619.18,1557.37 3627,1517.5C 3636.01,1490.83 3654.51,1475.33 3682.5,1471C 3687.14,1470.17 3691.81,1469.5 3696.5,1469C 3728.5,1468.5 3760.5,1468.33 3792.5,1468.5C 3793.83,1453.06 3792,1438.06 3787,1423.5C 3777.96,1406.38 3763.8,1396.21 3744.5,1393C 3708.32,1387.79 3675.98,1396.46 3647.5,1419C 3646.55,1419.62 3645.72,1419.45 3645,1418.5C 3640.67,1411.17 3636.33,1403.83 3632,1396.5C 3631.32,1395.22 3631.48,1394.05 3632.5,1393C 3656,1375.44 3682.34,1365.28 3711.5,1362.5 Z M 3702.5,1493.5 C 3732.5,1493.5 3762.5,1493.5 3792.5,1493.5C 3799.87,1529.25 3787.54,1555.42 3755.5,1572C 3732.85,1580.77 3709.85,1581.77 3686.5,1575C 3663.26,1565.36 3654.09,1548.19 3659,1523.5C 3662.31,1511.52 3669.81,1503.36 3681.5,1499C 3688.45,1496.45 3695.45,1494.62 3702.5,1493.5 Z"/></g>
<g><path style="opacity:0.977" fill="#00589b" d="M 4514.5,1362.5 C 4552.54,1358.54 4585.37,1369.54 4613,1395.5C 4638.1,1423.63 4648.93,1456.63 4645.5,1494.5C 4578.83,1494.17 4512.16,1494.5 4445.5,1495.5C 4454.48,1547.93 4485.65,1574.93 4539,1576.5C 4567.63,1576.63 4591.8,1566.47 4611.5,1546C 4612.17,1545.33 4612.83,1545.33 4613.5,1546C 4618.67,1551.83 4623.83,1557.67 4629,1563.5C 4630.19,1565.04 4630.52,1566.71 4630,1568.5C 4607.12,1592.52 4578.95,1605.02 4545.5,1606C 4504.89,1608.36 4470.39,1595.19 4442,1566.5C 4415.12,1532.48 4406.46,1494.15 4416,1451.5C 4425.09,1413.75 4447.26,1386.92 4482.5,1371C 4493.05,1367.2 4503.72,1364.36 4514.5,1362.5 Z M 4525.5,1390.5 C 4563.28,1390.16 4590.45,1406.82 4607,1440.5C 4610.9,1449.78 4613.07,1459.45 4613.5,1469.5C 4557.5,1469.83 4501.5,1469.5 4445.5,1468.5C 4450.47,1429.37 4471.81,1404.2 4509.5,1393C 4514.99,1392.23 4520.32,1391.39 4525.5,1390.5 Z"/></g>
<g><path style="opacity:0.99" fill="#00589b" d="M 5382.5,1362.5 C 5388.17,1362.5 5393.83,1362.5 5399.5,1362.5C 5399.5,1373.17 5399.5,1383.83 5399.5,1394.5C 5368.37,1391.16 5343.53,1401.83 5325,1426.5C 5317.67,1438.82 5313.34,1452.15 5312,1466.5C 5311.5,1512.17 5311.33,1557.83 5311.5,1603.5C 5300.17,1603.5 5288.83,1603.5 5277.5,1603.5C 5277.5,1523.83 5277.5,1444.17 5277.5,1364.5C 5288.17,1364.5 5298.83,1364.5 5309.5,1364.5C 5309.33,1379.17 5309.5,1393.84 5310,1408.5C 5319.5,1389.34 5334.33,1376.17 5354.5,1369C 5363.8,1366.11 5373.14,1363.94 5382.5,1362.5 Z"/></g>
<g><path style="opacity:0.982" fill="#00589b" d="M 5528.5,1362.5 C 5569.42,1358.3 5604.58,1370.3 5634,1398.5C 5662.65,1433.04 5671.98,1472.37 5662,1516.5C 5644.11,1574.51 5604.61,1604.51 5543.5,1606.5C 5497.01,1605.52 5461.51,1585.52 5437,1546.5C 5418.4,1508.92 5416.74,1470.58 5432,1431.5C 5451.93,1391.45 5484.1,1368.45 5528.5,1362.5 Z M 5532.5,1391.5 C 5587.99,1389.18 5620.83,1415.18 5631,1469.5C 5635.15,1501.37 5626.65,1529.21 5605.5,1553C 5579.8,1574.94 5550.46,1581.61 5517.5,1573C 5480.74,1560.22 5460.24,1534.39 5456,1495.5C 5451.75,1456.85 5465.25,1426.35 5496.5,1404C 5507.9,1397.7 5519.9,1393.54 5532.5,1391.5 Z"/></g>
<g><path style="opacity:0.981" fill="#00589b" d="M 5828.5,1362.5 C 5858.07,1358.91 5885.07,1365.41 5909.5,1382C 5928.95,1399.07 5939.78,1420.57 5942,1446.5C 5942.5,1498.83 5942.67,1551.17 5942.5,1603.5C 5931.5,1603.5 5920.5,1603.5 5909.5,1603.5C 5909.67,1553.83 5909.5,1504.17 5909,1454.5C 5903.62,1412.97 5879.95,1392.3 5838,1392.5C 5802.24,1391.7 5776.9,1407.36 5762,1439.5C 5758.74,1447.88 5756.74,1456.54 5756,1465.5C 5755.5,1511.5 5755.33,1557.5 5755.5,1603.5C 5744.5,1603.5 5733.5,1603.5 5722.5,1603.5C 5722.5,1523.83 5722.5,1444.17 5722.5,1364.5C 5732.83,1364.5 5743.17,1364.5 5753.5,1364.5C 5753.33,1378.5 5753.5,1392.5 5754,1406.5C 5765.68,1388.82 5781.52,1376.32 5801.5,1369C 5810.44,1366.01 5819.44,1363.85 5828.5,1362.5 Z"/></g>
<g><path style="opacity:0.981" fill="#00589b" d="M 6087.5,1362.5 C 6111.63,1360.11 6134.97,1363.28 6157.5,1372C 6185.58,1386.96 6200.41,1410.46 6202,1442.5C 6202.5,1496.17 6202.67,1549.83 6202.5,1603.5C 6191.83,1603.5 6181.17,1603.5 6170.5,1603.5C 6170.67,1592.16 6170.5,1580.83 6170,1569.5C 6156.31,1588.45 6137.81,1599.95 6114.5,1604C 6091.07,1608.13 6068.07,1606.46 6045.5,1599C 6008.92,1582.68 5995.09,1554.84 6004,1515.5C 6012.63,1491.59 6029.46,1477.09 6054.5,1472C 6060.44,1470.61 6066.44,1469.61 6072.5,1469C 6104.83,1468.5 6137.16,1468.33 6169.5,1468.5C 6170.48,1453.46 6168.64,1438.79 6164,1424.5C 6153.84,1404.32 6137.34,1393.48 6114.5,1392C 6080.44,1388.91 6050.11,1397.91 6023.5,1419C 6022.67,1419.69 6022,1419.52 6021.5,1418.5C 6016.83,1410.83 6012.17,1403.17 6007.5,1395.5C 6017.36,1386.16 6028.7,1379 6041.5,1374C 6056.51,1368.3 6071.84,1364.47 6087.5,1362.5 Z M 6078.5,1493.5 C 6108.83,1493.5 6139.17,1493.5 6169.5,1493.5C 6176.46,1530.42 6163.13,1556.92 6129.5,1573C 6109.91,1580.01 6089.91,1581.34 6069.5,1577C 6043.14,1569.79 6031.64,1552.62 6035,1525.5C 6037.75,1513.75 6044.58,1505.25 6055.5,1500C 6063.07,1497.03 6070.74,1494.86 6078.5,1493.5 Z"/></g>
<g><path style="opacity:0.973" fill="#00589b" d="M 3354.5,1364.5 C 3365.83,1364.5 3377.17,1364.5 3388.5,1364.5C 3388.5,1444.17 3388.5,1523.83 3388.5,1603.5C 3377.17,1603.5 3365.83,1603.5 3354.5,1603.5C 3354.5,1523.83 3354.5,1444.17 3354.5,1364.5 Z"/></g>
<g><path style="opacity:0.977" fill="#00589b" d="M 5164.5,1364.5 C 5175.5,1364.5 5186.5,1364.5 5197.5,1364.5C 5197.5,1444.17 5197.5,1523.83 5197.5,1603.5C 5186.5,1603.5 5175.5,1603.5 5164.5,1603.5C 5164.5,1523.83 5164.5,1444.17 5164.5,1364.5 Z"/></g>
</svg>
